<svg xmlns="http://www.w3.org/2000/svg" width="27" height="28" fill="none">
  <path fill="#292929" d="M20.349 12.37a3.656 3.656 0 0 0-1.046 2.93l-.018-.019a4.344 4.344 0 0 1-4.694 4.694l.018.018a3.678 3.678 0 1 0 3.32 3.318l.02.018a4.344 4.344 0 0 1 4.694-4.694l-.02-.018a3.672 3.672 0 1 0-2.271-6.247h-.003Z"/>
  <path fill="#292929" d="m12.972 17.635-.02-.018a3.632 3.632 0 0 0 3.978-3.974l.019.018a4.345 4.345 0 0 1 4.694-4.694l-.02-.018a3.678 3.678 0 1 0-3.317-3.318l-.018-.019a4.344 4.344 0 0 1-4.694 4.694l.018.02a3.632 3.632 0 0 0-3.977 3.973l-.018-.018a4.346 4.346 0 0 1-4.694 4.694l.018.018a3.677 3.677 0 1 0 3.318 3.318l.019.018a4.344 4.344 0 0 1 4.694-4.694Z"/>
  <path fill="#292929" d="M6.27 15.628a3.652 3.652 0 0 0 1.045-2.929l.019.018a4.344 4.344 0 0 1 4.696-4.694l-.02-.018a3.677 3.677 0 1 0-3.317-3.318l-.018-.018A4.343 4.343 0 0 1 3.98 9.363l.018.018a3.671 3.671 0 1 0 2.273 6.247H6.27Z"/>
</svg>
